<svg xmlns="http://www.w3.org/2000/svg" width="17" height="17" viewBox="0 0 17 17"><defs><style>.a,.b,.c,.e{fill:none;}.a,.b,.c{stroke:#f2a71b;}.a,.c{stroke-linecap:round;}.a{stroke-linejoin:round;}.d{stroke:none;}</style></defs><g transform="translate(-41.268 -204.031)"><path class="a" d="M-115.8-155.317l1.758-2.018,1.834,2.138,2.58-.8.273,2.831,2.562.8-1.2,2.522,1.747,1.955-2.327,1.567.369,2.593h-2.808l-1.106,2.387-2.338-1.519-2.183,1.442-1.236-2.673-2.513.047.48-2.732-2.339-1.424,1.908-2.159-1.138-2.351,2.667-.822.354-2.623Z" transform="translate(164.022 361.866)"/><g class="b" transform="translate(46.416 208.785)"><ellipse class="d" cx="1.631" cy="1.631" rx="1.631" ry="1.631"/><ellipse class="e" cx="1.631" cy="1.631" rx="1.131" ry="1.131"/></g><g class="b" transform="translate(49.772 212.855)"><ellipse class="d" cx="1.631" cy="1.631" rx="1.631" ry="1.631"/><ellipse class="e" cx="1.631" cy="1.631" rx="1.131" ry="1.131"/></g><path class="c" d="M-30.654-84l-3.531,4.839" transform="translate(82.041 293.965)"/></g></svg>