<svg xmlns="http://www.w3.org/2000/svg" width="17.418" height="14.857" viewBox="0 0 17.418 14.857"><defs><style>.a,.b,.d{fill:none;}.a,.b{stroke:#261323;}.b{stroke-linecap:round;}.c{stroke:none;}</style></defs><g class="a"><ellipse class="c" cx="6.324" cy="6.324" rx="6.324" ry="6.324"/><ellipse class="d" cx="6.324" cy="6.324" rx="5.824" ry="5.824"/></g><g class="a" transform="matrix(0.588, -0.809, 0.809, 0.588, 10.252, 10.921)"><path class="c" d="M0,0H2.976a0,0,0,0,1,0,0V5.7a1,1,0,0,1-1,1H1a1,1,0,0,1-1-1V0A0,0,0,0,1,0,0Z"/><rect class="d" x="0.5" y="0.5" width="1.976" height="5.696" rx="0.5"/></g><path class="b" d="M0,1.348A3.755,3.755,0,0,1,3.063,0,3.392,3.392,0,0,1,6.125,1.348" transform="matrix(0.839, 0.545, -0.545, 0.839, 5.948, 1.22)"/></svg>