<svg xmlns="http://www.w3.org/2000/svg" width="10" height="15" viewBox="0 0 10 15"><defs><style>.a,.b,.e{fill:none;}.b{stroke:#fff;}.c,.d{stroke:none;}.d{fill:#fff;}</style></defs><g transform="translate(-290 -25)"><g class="a" transform="translate(290 25)"><path class="c" d="M5,0a5.108,5.108,0,0,1,5,5.373C10,8.482,4.917,14.844,5,15S0,8.521,0,5.373A5.085,5.085,0,0,1,5,0Z"/><path class="d" d="M 4.999995708465576 1.000001907348633 C 3.921455860137939 1.000001907348633 2.922955513000488 1.424531936645508 2.188425540924072 2.195391654968262 C 1.422055244445801 2.999662399291992 0.999995231628418 4.128042221069336 0.999995231628418 5.372681617736816 C 0.999995231628418 5.977882385253906 1.28864574432373 7.466681957244873 3.22182559967041 10.63788223266602 C 3.846569538116455 11.66271686553955 4.475766658782959 12.58754920959473 4.951438903808594 13.25777149200439 C 5.61030101776123 12.31258678436279 6.610330104827881 10.86095905303955 7.449275970458984 9.386981964111328 C 8.730965614318848 7.135162353515625 8.999996185302734 5.961082458496094 8.999996185302734 5.372681617736816 C 8.999996185302734 2.879841804504395 7.280365943908691 1.000001907348633 4.999995708465576 1.000001907348633 M 4.999995708465576 1.9073486328125e-06 C 7.761415481567383 1.9073486328125e-06 9.999996185302734 2.263002395629883 9.999996185302734 5.372681617736816 C 9.999996185302734 8.482361793518066 4.917425632476807 14.84375190734863 4.999995708465576 14.99743175506592 C 5.000937938690186 14.99918556213379 5.001206398010254 15.0000581741333 5.000818252563477 15.0000581741333 C 4.967206001281738 15.0000581741333 -4.76837158203125e-06 8.485532760620117 -4.76837158203125e-06 5.372681617736816 C -4.76837158203125e-06 2.223892211914063 2.23857593536377 1.9073486328125e-06 4.999995708465576 1.9073486328125e-06 Z"/></g><g class="b" transform="translate(292.5 27.5)"><circle class="c" cx="2.5" cy="2.5" r="2.5"/><circle class="e" cx="2.5" cy="2.5" r="2"/></g></g></svg>