<svg xmlns="http://www.w3.org/2000/svg" width="12" height="18" viewBox="0 0 12 18"><defs><style>.a,.b,.e{fill:none;}.b{stroke:#a62190;}.c,.d{stroke:none;}.d{fill:#a62190;}</style></defs><g transform="translate(-204 -183.728)"><g class="a" transform="translate(204 183.728)"><path class="c" d="M6,0a6.13,6.13,0,0,1,6,6.447C12,10.179,5.9,17.812,6,18S0,10.226,0,6.447A6.1,6.1,0,0,1,6,0Z"/><path class="d" d="M 5.999969482421875 0.9999980926513672 C 4.650469303131104 0.9999980926513672 3.400859832763672 1.531457901000977 2.48130989074707 2.496488571166992 C 1.526069641113281 3.498969078063965 0.9999990463256836 4.902029037475586 0.9999990463256836 6.447198867797852 C 0.9999990463256836 7.739849090576172 1.96049976348877 10.02599906921387 3.704559326171875 12.88450813293457 C 4.525952339172363 14.2307710647583 5.357111930847168 15.43768310546875 5.944021224975586 16.25546646118164 C 7.336572647094727 14.2605447769165 10.99993991851807 9.00682544708252 10.99993991851807 6.447198867797852 C 10.99993991851807 4.918539047241211 10.47323989868164 3.521068572998047 9.51685905456543 2.512228965759277 C 8.592399597167969 1.53704833984375 7.343409538269043 0.9999980926513672 5.999969482421875 0.9999980926513672 M 5.999969482421875 -1.9073486328125e-06 C 9.31365966796875 -1.9073486328125e-06 11.99993991851807 2.715588569641113 11.99993991851807 6.447198867797852 C 11.99993991851807 10.17879867553711 5.90088939666748 17.81243896484375 5.999969482421875 17.99684906005859 C 6.001100540161133 17.99895286560059 6.00142240524292 18 6.000956535339355 18 C 5.960618495941162 18 -9.5367431640625e-07 10.18260192871094 -9.5367431640625e-07 6.447198867797852 C -9.5367431640625e-07 2.668658256530762 2.686279296875 -1.9073486328125e-06 5.999969482421875 -1.9073486328125e-06 Z"/></g><g class="b" transform="translate(207 186.728)"><ellipse class="c" cx="3" cy="3" rx="3" ry="3"/><ellipse class="e" cx="3" cy="3" rx="2.5" ry="2.5"/></g></g></svg>