<svg xmlns="http://www.w3.org/2000/svg" width="16" height="16" viewBox="0 0 16 16"><defs><style>.a,.b{fill:none;}.b{stroke:#a62190;stroke-linecap:round;stroke-linejoin:round;}.c,.d{stroke:none;}.d{fill:#a62190;}</style></defs><g transform="translate(-345 -184)"><g class="a" transform="translate(345 184)"><path class="c" d="M8,0A8,8,0,1,1,0,8,8,8,0,0,1,8,0Z"/><path class="d" d="M 8 1 C 4.140190124511719 1 1 4.140190124511719 1 8 C 1 11.85980987548828 4.140190124511719 15 8 15 C 11.85980987548828 15 15 11.85980987548828 15 8 C 15 4.140190124511719 11.85980987548828 1 8 1 M 8 0 C 12.41827964782715 0 16 3.581720352172852 16 8 C 16 12.41827964782715 12.41827964782715 16 8 16 C 3.581720352172852 16 0 12.41827964782715 0 8 C 0 3.581720352172852 3.581720352172852 0 8 0 Z"/></g><path class="b" d="M-329.712,242.211V247.6l3.606,3.324" transform="translate(682.279 -55.031)"/></g></svg>