<svg xmlns="http://www.w3.org/2000/svg" width="19" height="16.25" viewBox="0 0 19 16.25"><defs><style>.a,.d{fill:none;}.a{stroke:#f28322;}.b{fill:#f28322;font-size:8px;font-family:Lato-Bold, Lato;font-weight:700;}.c{stroke:none;}</style></defs><g transform="translate(-275 -206)"><g class="a" transform="translate(275 206)"><path class="c" d="M6,0H19a0,0,0,0,1,0,0V10.25a6,6,0,0,1-6,6H6a6,6,0,0,1-6-6V6A6,6,0,0,1,6,0Z"/><path class="d" d="M6,.5H18a.5.5,0,0,1,.5.5v9.25a5.5,5.5,0,0,1-5.5,5.5H6a5.5,5.5,0,0,1-5.5-5.5V6A5.5,5.5,0,0,1,6,.5Z"/></g><text class="b" transform="translate(279 217)"><tspan x="0" y="0">4.9</tspan></text></g></svg>